<svg width="40" height="40" viewBox="0 0 40 40" fill="none" xmlns="http://www.w3.org/2000/svg">
<path d="M20 0L22.3061 1.74509L24.9738 0.628336L26.7735 2.89211L29.6351 2.47387L30.8152 5.11409L33.6909 5.42063L34.1774 8.2714L36.8866 9.28346L36.6488 12.1657L39.0211 13.8197L38.0741 16.5522L39.9605 18.7442L38.3637 21.1553L39.6457 23.7476L37.4994 25.6859L38.0965 28.5156L35.5356 29.8592L35.4103 32.7485L32.5957 33.413L31.7557 36.1803L28.8643 36.124L27.3625 38.5955L24.5759 37.8219L22.5067 39.8423L20 38.4L17.4933 39.8423L15.4241 37.8219L12.6375 38.5955L11.1357 36.124L8.24429 36.1803L7.40433 33.413L4.58974 32.7485L4.46437 29.8592L1.90346 28.5156L2.50056 25.6859L0.354256 23.7476L1.63631 21.1553L0.0394649 18.7442L1.92591 16.5522L0.97887 13.8197L3.35118 12.1657L3.11344 9.28346L5.82256 8.2714L6.30906 5.42063L9.18475 5.11409L10.3649 2.47387L13.2265 2.89211L15.0262 0.628336L17.6939 1.74509L20 0Z" fill="white"/>
</svg>
